<svg t="1741691433161" class="icon" viewBox="0 0 1024 1024" version="1.1" xmlns="http://www.w3.org/2000/svg" p-id="5271" width="128" height="128"><path d="M722.309 836.349l-355.125-324.43 355.207-324.457a31.497 31.497 0 0 0 9.336-22.379 31.497 31.497 0 0 0-9.336-22.379c-12.41-12.391-32.512-12.391-44.922 0L299.465 487.915c-6.582 6.555-9.449 15.402-9.012 24.031-0.437 8.574 2.348 17.34 9.012 24.004l378.031 345.237a31.733 31.733 0 0 0 54.238-13.644 31.736 31.736 0 0 0-9.425-31.194z m0 0" fill="#ffffff" p-id="5272"></path><path d="M699.891 129.161c9.664 0 18.73 3.715 25.613 10.539a35.699 35.699 0 0 1-0.192 50.984l-351.71 321.235L725.34 833.427c6.824 6.828 10.621 15.84 10.621 25.449 0 9.613-3.715 18.625-10.512 25.449-6.828 6.827-15.949 10.516-25.559 10.516-9.613 0-18.707-3.797-25.371-10.461L296.352 538.954a35.086 35.086 0 0 1-10.297-26.871c-0.516-10.27 3.277-20.207 10.461-27.363L674.355 139.7c6.829-6.742 15.922-10.539 25.536-10.539z m0 757.023a27.383 27.383 0 0 0 19.426-8.003 27.381 27.381 0 0 0 8.043-19.414 27.448 27.448 0 0 0-8-19.195L360.766 511.919l358.511-327.57a27.02 27.02 0 0 0 8.105-19.293 27.022 27.022 0 0 0-8.105-19.293 27.475 27.475 0 0 0-38.942 0.164L302.469 490.946a27.673 27.673 0 0 0-7.758 21.11 27.034 27.034 0 0 0 7.594 20.671L680.5 878.102c5.16 5.188 12.043 8.082 19.391 8.082z m0 0" fill="#ffffff" p-id="5273"></path></svg>